solid ascii
  facet normal 1.000000e+00 0.000000e+00 0.000000e+00
    outer loop
      vertex   -1.814000e+01 -2.000000e+01 1.110223e-14
      vertex   -1.814000e+01 -1.207500e+01 1.110223e-14
      vertex   -1.814000e+01 -2.000000e+01 1.000000e+01
    endloop
  endfacet
  facet normal 7.837279e-01 -0.000000e+00 0.000000e+00
    outer loop
      vertex   -1.814000e+01 -2.000000e+01 1.000000e+01
      vertex   -1.814000e+01 -1.207500e+01 1.110223e-14
      vertex   -1.814000e+01 -1.207500e+01 1.000000e+01
    endloop
  endfacet
  facet normal 0.000000e+00 -1.000000e+00 0.000000e+00
    outer loop
      vertex   -1.814000e+01 -1.207500e+01 1.110223e-14
      vertex   1.446000e+01 -1.207500e+01 1.110223e-14
      vertex   -1.814000e+01 -1.207500e+01 1.000000e+01
    endloop
  endfacet
  facet normal 0.000000e+00 -2.932614e-01 0.000000e+00
    outer loop
      vertex   -1.814000e+01 -1.207500e+01 1.000000e+01
      vertex   1.446000e+01 -1.207500e+01 1.110223e-14
      vertex   1.446000e+01 -1.207500e+01 1.000000e+01
    endloop
  endfacet
  facet normal -1.000000e+00 0.000000e+00 0.000000e+00
    outer loop
      vertex   1.446000e+01 -1.207500e+01 1.110223e-14
      vertex   1.446000e+01 -2.000000e+01 1.110223e-14
      vertex   1.446000e+01 -1.207500e+01 1.000000e+01
    endloop
  endfacet
  facet normal -7.837279e-01 -0.000000e+00 0.000000e+00
    outer loop
      vertex   1.446000e+01 -1.207500e+01 1.000000e+01
      vertex   1.446000e+01 -2.000000e+01 1.110223e-14
      vertex   1.446000e+01 -2.000000e+01 1.000000e+01
    endloop
  endfacet
  facet normal 0.000000e+00 0.000000e+00 -1.000000e+00
    outer loop
      vertex   1.446000e+01 -2.000000e+01 1.110223e-14
      vertex   1.446000e+01 -1.207500e+01 1.110223e-14
      vertex   2.275000e+01 -2.000000e+01 1.110223e-14
    endloop
  endfacet
  facet normal -1.852590e-16 -1.937915e-16 -5.269284e-01
    outer loop
      vertex   2.275000e+01 -2.000000e+01 1.110223e-14
      vertex   1.446000e+01 -1.207500e+01 1.110223e-14
      vertex   1.446000e+01 1.207500e+01 2.220446e-15
    endloop
  endfacet
  facet normal 5.311672e-17 -5.556312e-17 -2.502340e-01
    outer loop
      vertex   2.275000e+01 -2.000000e+01 1.110223e-14
      vertex   1.446000e+01 1.207500e+01 2.220446e-15
      vertex   2.275000e+01 2.000000e+01 2.220446e-15
    endloop
  endfacet
  facet normal -0.000000e+00 0.000000e+00 -6.910148e-01
    outer loop
      vertex   2.275000e+01 2.000000e+01 2.220446e-15
      vertex   1.446000e+01 1.207500e+01 2.220446e-15
      vertex   1.446000e+01 2.000000e+01 2.220446e-15
    endloop
  endfacet
  facet normal -0.000000e+00 -3.677757e-16 -1.000000e+00
    outer loop
      vertex   1.446000e+01 1.207500e+01 2.220446e-15
      vertex   1.446000e+01 -1.207500e+01 1.110223e-14
      vertex   -1.814000e+01 1.207500e+01 2.220446e-15
    endloop
  endfacet
  facet normal 0.000000e+00 -2.955208e-16 -8.035353e-01
    outer loop
      vertex   -1.814000e+01 1.207500e+01 2.220446e-15
      vertex   1.446000e+01 -1.207500e+01 1.110223e-14
      vertex   -1.814000e+01 -1.207500e+01 1.110223e-14
    endloop
  endfacet
  facet normal -3.179022e-16 -1.849248e-16 -5.028195e-01
    outer loop
      vertex   -1.814000e+01 1.207500e+01 2.220446e-15
      vertex   -1.814000e+01 -1.207500e+01 1.110223e-14
      vertex   -2.275000e+01 2.000000e+01 2.220446e-15
    endloop
  endfacet
  facet normal 5.430413e-17 -3.158891e-17 -1.422638e-01
    outer loop
      vertex   -2.275000e+01 2.000000e+01 2.220446e-15
      vertex   -1.814000e+01 -1.207500e+01 1.110223e-14
      vertex   -2.275000e+01 -2.000000e+01 1.110223e-14
    endloop
  endfacet
  facet normal 0.000000e+00 0.000000e+00 -8.643914e-01
    outer loop
      vertex   -2.275000e+01 -2.000000e+01 1.110223e-14
      vertex   -1.814000e+01 -1.207500e+01 1.110223e-14
      vertex   -1.814000e+01 -2.000000e+01 1.110223e-14
    endloop
  endfacet
  facet normal 0.000000e+00 0.000000e+00 -8.643914e-01
    outer loop
      vertex   -2.275000e+01 2.000000e+01 2.220446e-15
      vertex   -1.814000e+01 2.000000e+01 2.220446e-15
      vertex   -1.814000e+01 1.207500e+01 2.220446e-15
    endloop
  endfacet
  facet normal -0.000000e+00 -1.000000e+00 -0.000000e+00
    outer loop
      vertex   -1.814000e+01 -2.000000e+01 1.000000e+01
      vertex   -2.275000e+01 -2.000000e+01 1.000000e+01
      vertex   -1.814000e+01 -2.000000e+01 1.110223e-14
    endloop
  endfacet
  facet normal 0.000000e+00 -9.081453e-01 0.000000e+00
    outer loop
      vertex   -1.814000e+01 -2.000000e+01 1.110223e-14
      vertex   -2.275000e+01 -2.000000e+01 1.000000e+01
      vertex   -2.275000e+01 -2.000000e+01 1.110223e-14
    endloop
  endfacet
  facet normal 1.000000e+00 0.000000e+00 0.000000e+00
    outer loop
      vertex   -1.814000e+01 2.000000e+01 1.000000e+01
      vertex   -1.814000e+01 1.207500e+01 1.000000e+01
      vertex   -1.814000e+01 2.000000e+01 2.220446e-15
    endloop
  endfacet
  facet normal 7.837279e-01 0.000000e+00 0.000000e+00
    outer loop
      vertex   -1.814000e+01 2.000000e+01 2.220446e-15
      vertex   -1.814000e+01 1.207500e+01 1.000000e+01
      vertex   -1.814000e+01 1.207500e+01 2.220446e-15
    endloop
  endfacet
  facet normal -0.000000e+00 1.000000e+00 0.000000e+00
    outer loop
      vertex   -1.814000e+01 1.207500e+01 1.000000e+01
      vertex   1.446000e+01 1.207500e+01 1.000000e+01
      vertex   -1.814000e+01 1.207500e+01 2.220446e-15
    endloop
  endfacet
  facet normal 0.000000e+00 2.932614e-01 0.000000e+00
    outer loop
      vertex   -1.814000e+01 1.207500e+01 2.220446e-15
      vertex   1.446000e+01 1.207500e+01 1.000000e+01
      vertex   1.446000e+01 1.207500e+01 2.220446e-15
    endloop
  endfacet
  facet normal -1.000000e+00 0.000000e+00 0.000000e+00
    outer loop
      vertex   1.446000e+01 1.207500e+01 1.000000e+01
      vertex   1.446000e+01 2.000000e+01 1.000000e+01
      vertex   1.446000e+01 1.207500e+01 2.220446e-15
    endloop
  endfacet
  facet normal -7.837279e-01 0.000000e+00 0.000000e+00
    outer loop
      vertex   1.446000e+01 1.207500e+01 2.220446e-15
      vertex   1.446000e+01 2.000000e+01 1.000000e+01
      vertex   1.446000e+01 2.000000e+01 2.220446e-15
    endloop
  endfacet
  facet normal -0.000000e+00 1.000000e+00 0.000000e+00
    outer loop
      vertex   1.446000e+01 2.000000e+01 1.000000e+01
      vertex   2.275000e+01 2.000000e+01 1.000000e+01
      vertex   1.446000e+01 2.000000e+01 2.220446e-15
    endloop
  endfacet
  facet normal 0.000000e+00 7.698594e-01 0.000000e+00
    outer loop
      vertex   1.446000e+01 2.000000e+01 2.220446e-15
      vertex   2.275000e+01 2.000000e+01 1.000000e+01
      vertex   2.275000e+01 2.000000e+01 2.220446e-15
    endloop
  endfacet
  facet normal 0.000000e+00 1.000000e+00 -0.000000e+00
    outer loop
      vertex   -1.814000e+01 2.000000e+01 2.220446e-15
      vertex   -2.275000e+01 2.000000e+01 2.220446e-15
      vertex   -1.814000e+01 2.000000e+01 1.000000e+01
    endloop
  endfacet
  facet normal 0.000000e+00 9.081453e-01 0.000000e+00
    outer loop
      vertex   -1.814000e+01 2.000000e+01 1.000000e+01
      vertex   -2.275000e+01 2.000000e+01 2.220446e-15
      vertex   -2.275000e+01 2.000000e+01 1.000000e+01
    endloop
  endfacet
  facet normal 0.000000e+00 -1.000000e+00 0.000000e+00
    outer loop
      vertex   1.446000e+01 -2.000000e+01 1.110223e-14
      vertex   2.275000e+01 -2.000000e+01 1.110223e-14
      vertex   1.446000e+01 -2.000000e+01 1.000000e+01
    endloop
  endfacet
  facet normal 0.000000e+00 -7.698594e-01 0.000000e+00
    outer loop
      vertex   1.446000e+01 -2.000000e+01 1.000000e+01
      vertex   2.275000e+01 -2.000000e+01 1.110223e-14
      vertex   2.275000e+01 -2.000000e+01 1.000000e+01
    endloop
  endfacet
  facet normal -1.000000e+00 0.000000e+00 0.000000e+00
    outer loop
      vertex   -2.275000e+01 -2.000000e+01 1.000000e+01
      vertex   -2.275000e+01 2.000000e+01 1.000000e+01
      vertex   -2.275000e+01 -2.000000e+01 1.110223e-14
    endloop
  endfacet
  facet normal -2.425356e-01 0.000000e+00 0.000000e+00
    outer loop
      vertex   -2.275000e+01 -2.000000e+01 1.110223e-14
      vertex   -2.275000e+01 2.000000e+01 1.000000e+01
      vertex   -2.275000e+01 2.000000e+01 2.220446e-15
    endloop
  endfacet
  facet normal 0.000000e+00 0.000000e+00 1.000000e+00
    outer loop
      vertex   1.446000e+01 -2.000000e+01 1.000000e+01
      vertex   2.275000e+01 -2.000000e+01 1.000000e+01
      vertex   1.446000e+01 -1.207500e+01 1.000000e+01
    endloop
  endfacet
  facet normal -0.000000e+00 0.000000e+00 8.727592e-01
    outer loop
      vertex   1.446000e+01 -1.207500e+01 1.000000e+01
      vertex   2.275000e+01 -2.000000e+01 1.000000e+01
      vertex   2.275000e+01 2.000000e+01 1.000000e+01
    endloop
  endfacet
  facet normal 0.000000e+00 0.000000e+00 2.502340e-01
    outer loop
      vertex   1.446000e+01 -1.207500e+01 1.000000e+01
      vertex   2.275000e+01 2.000000e+01 1.000000e+01
      vertex   1.446000e+01 1.207500e+01 1.000000e+01
    endloop
  endfacet
  facet normal 0.000000e+00 0.000000e+00 7.228407e-01
    outer loop
      vertex   1.446000e+01 1.207500e+01 1.000000e+01
      vertex   2.275000e+01 2.000000e+01 1.000000e+01
      vertex   1.446000e+01 2.000000e+01 1.000000e+01
    endloop
  endfacet
  facet normal 0.000000e+00 -0.000000e+00 1.000000e+00
    outer loop
      vertex   1.446000e+01 -1.207500e+01 1.000000e+01
      vertex   1.446000e+01 1.207500e+01 1.000000e+01
      vertex   -1.814000e+01 -1.207500e+01 1.000000e+01
    endloop
  endfacet
  facet normal 0.000000e+00 0.000000e+00 8.035353e-01
    outer loop
      vertex   -1.814000e+01 -1.207500e+01 1.000000e+01
      vertex   1.446000e+01 1.207500e+01 1.000000e+01
      vertex   -1.814000e+01 1.207500e+01 1.000000e+01
    endloop
  endfacet
  facet normal 0.000000e+00 -0.000000e+00 5.028195e-01
    outer loop
      vertex   -1.814000e+01 -1.207500e+01 1.000000e+01
      vertex   -1.814000e+01 1.207500e+01 1.000000e+01
      vertex   -2.275000e+01 -2.000000e+01 1.000000e+01
    endloop
  endfacet
  facet normal 0.000000e+00 0.000000e+00 1.422638e-01
    outer loop
      vertex   -2.275000e+01 -2.000000e+01 1.000000e+01
      vertex   -1.814000e+01 1.207500e+01 1.000000e+01
      vertex   -2.275000e+01 2.000000e+01 1.000000e+01
    endloop
  endfacet
  facet normal -0.000000e+00 0.000000e+00 8.643914e-01
    outer loop
      vertex   -2.275000e+01 2.000000e+01 1.000000e+01
      vertex   -1.814000e+01 1.207500e+01 1.000000e+01
      vertex   -1.814000e+01 2.000000e+01 1.000000e+01
    endloop
  endfacet
  facet normal 0.000000e+00 0.000000e+00 8.643914e-01
    outer loop
      vertex   -2.275000e+01 -2.000000e+01 1.000000e+01
      vertex   -1.814000e+01 -2.000000e+01 1.000000e+01
      vertex   -1.814000e+01 -1.207500e+01 1.000000e+01
    endloop
  endfacet
  facet normal 1.000000e+00 -0.000000e+00 0.000000e+00
    outer loop
      vertex   2.275000e+01 -2.000000e+01 1.110223e-14
      vertex   2.275000e+01 2.000000e+01 2.220446e-15
      vertex   2.275000e+01 -2.000000e+01 1.000000e+01
    endloop
  endfacet
  facet normal 2.425356e-01 -0.000000e+00 0.000000e+00
    outer loop
      vertex   2.275000e+01 -2.000000e+01 1.000000e+01
      vertex   2.275000e+01 2.000000e+01 2.220446e-15
      vertex   2.275000e+01 2.000000e+01 1.000000e+01
    endloop
  endfacet
endsolid
